<?xml version="1.0" standalone="no"?><!DOCTYPE svg PUBLIC "-//W3C//DTD SVG 1.1//EN" "http://www.w3.org/Graphics/SVG/1.1/DTD/svg11.dtd"><svg class="icon" height="512" viewBox="0 0 1024 1024" version="1.1" xmlns="http://www.w3.org/2000/svg"><path d="M512 243.2c-93.866667 0-183.466667 46.933333-238.933333 123.733333-12.8 21.333333-51.2 102.4-46.933334 183.466667 0 166.4 128 302.933333 290.133334 302.933333s294.4-136.533333 294.4-302.933333-136.533333-307.2-298.666667-307.2zM345.6 729.6l-4.266667 4.266667c-51.2-46.933333-76.8-102.4-76.8-157.866667 0-38.4 0-89.6 17.066667-132.266667 4.266667-8.533333 8.533333-21.333333 17.066667-29.866666 149.333333 55.466667 307.2 145.066667 307.2 187.733333 0 12.8 4.266667 21.333333 17.066666 29.866667 0 0 34.133333 34.133333 38.4 46.933333v12.8c-17.066667-12.8-42.666667-17.066667-81.066666-25.6-17.066667-4.266667-34.133333-4.266667-51.2-4.266667-51.2 0-89.6 12.8-119.466667 29.866667-12.8 4.266667-38.4 17.066667-46.933333 29.866667-8.533333 0-12.8 4.266667-17.066667 8.533333zM512 810.666667c-51.2 0-102.4-17.066667-140.8-46.933334 0 0 4.266667 0 4.266667-4.266666l12.8-12.8c8.533333-4.266667 25.6-17.066667 38.4-21.333334 29.866667-12.8 59.733333-25.6 102.4-25.6 12.8 0 29.866667 0 42.666666 4.266667 59.733333 12.8 72.533333 21.333333 76.8 29.866667l12.8 21.333333c-42.666667 38.4-93.866667 55.466667-149.333333 55.466667z m157.866667-55.466667l12.8-12.8c17.066667-21.333333 25.6-46.933333 17.066666-72.533333-8.533333-29.866667-29.866667-51.2-46.933333-64-4.266667-4.266667-4.266667-4.266667-8.533333-4.266667 0-89.6-238.933333-192-324.266667-226.133333 46.933333-55.466667 119.466667-89.6 192-89.6 140.8 0 251.733333 119.466667 251.733333 260.266666 4.266667 85.333333-34.133333 157.866667-93.866666 209.066667zM507.733333 644.266667c21.333333 0 42.666667-8.533333 64-29.866667l21.333334-17.066667-21.333334-17.066666c-42.666667-29.866667-89.6-55.466667-132.266666-72.533334l-38.4-17.066666 8.533333 42.666666c8.533333 55.466667 42.666667 110.933333 98.133333 110.933334z m8.533334-42.666667h-8.533334c-17.066667 0-29.866667-12.8-42.666666-29.866667 17.066667 8.533333 34.133333 17.066667 51.2 29.866667z" /></svg>